# xmcd
#
# Track frame offsets: 
#        195
#        15257
#        31357
#        47027
#        56560
#        75172
#        85722
#        96880
#        113357
#        134907
#        145862
#        164557
#        174845
#
# Disc length: 2481 seconds
#
# Revision: 2
# Processed by: cddbd v1.4PL0 Copyright (c) Steve Scherf et al.
# Submitted via: ExactAudioCopy v0.90a11
#
DISCID=9709af0d
DTITLE=Beausoleil - Hot Chili Mama
DYEAR=1900
DGENRE=
TTITLE0=Acadian Two-Step
TTITLE1=Les Bons Temps Rouler Waltz
TTITLE2=Joe Pitre's So Bad
TTITLE3=Canray's Contredanse
TTITLE4=La Chanson De Cinquante Sous
TTITLE5=Je Veux Me Marier
TTITLE6=Chanson De Sagesse
TTITLE7=Hot Chili Mama
TTITLE8=Je Suis Marie Avec Une, Mais En Amor Avec Une Autre
TTITLE9=The Mosquito That Ate Up My Sweetheart in New Iberia Polka
TTITLE10=Grand Mallet
TTITLE11=Belle
TTITLE12=Oberlin Two-Step
EXTD=
EXTT0=
EXTT1=
EXTT2=
EXTT3=
EXTT4=
EXTT5=
EXTT6=
EXTT7=
EXTT8=
EXTT9=
EXTT10=
EXTT11=
EXTT12=
PLAYORDER=
